<?xml version="1.0" encoding="UTF-8" standalone="no"?>
<svg width="24px" height="48px" viewBox="0 0 24 48" version="1.1" xmlns="http://www.w3.org/2000/svg" xmlns:xlink="http://www.w3.org/1999/xlink">
    <title>Bottom</title>
    <description>It's supposed to look like a bottom.</description>
    <g id="Bottom" stroke="none" stroke-width="1" fill="none" fill-rule="evenodd">
        <path d="M9.4296,16.7735562 C10.0680032,17.0744696 10.689597,17.224924 11.2944,17.224924 C12.0840039,17.224924 12.7265975,17.0881473 13.2222,16.8145897 C13.7178025,16.5410321 13.9656,16.1307018 13.9656,15.5835866 C13.9656,15.2553175 13.9026006,14.9635271 13.7766,14.7082067 C13.6505994,14.4528863 13.4196017,14.2340435 13.0836,14.0516717 C12.7475983,13.8693 12.2940029,13.7325233 11.7228,13.6413374 C11.1515971,13.5501515 10.4208045,13.5045593 9.5304,13.5045593 L9.5304,10.2218845 C10.9752072,10.2218845 11.9915971,10.0440747 12.5796,9.68844985 C13.1676029,9.33282497 13.4616,8.85410635 13.4616,8.25227964 C13.4616,7.72340161 13.2852018,7.32674904 12.9324,7.06231003 C12.5795982,6.79787102 12.0840032,6.6656535 11.4456,6.6656535 C10.8575971,6.6656535 10.3200024,6.78419334 9.8328,7.0212766 C9.34559756,7.25835985 8.82480277,7.61397939 8.2704,8.0881459 L6.1032,5.24316109 C6.92640412,4.53191134 7.79579542,3.98024512 8.7114,3.5881459 C9.62700458,3.19604667 10.6055948,3 11.6472,3 C12.5712046,3 13.4111962,3.1094214 14.1672,3.32826748 C14.9232038,3.54711356 15.5699973,3.86170008 16.1076,4.27203647 C16.6452027,4.68237287 17.0609985,5.19300606 17.355,5.80395137 C17.6490015,6.41489667 17.796,7.11245809 17.796,7.89665653 C17.796,8.7355665 17.5482025,9.46504249 17.0526,10.0851064 C16.5569975,10.7051703 15.8304048,11.2249219 14.8728,11.6443769 L14.8728,11.7537994 C15.864005,12.0638313 16.6829968,12.5607869 17.3298,13.2446809 C17.9766032,13.9285748 18.3,14.8176237 18.3,15.9118541 C18.3,16.7325269 18.1194018,17.4574437 17.7582,18.0866261 C17.3969982,18.7158086 16.914003,19.2492379 16.3092,19.6869301 C15.704397,20.1246222 15.0072039,20.4528864 14.2176,20.6717325 C13.4279961,20.8905786 12.6048043,21 11.748,21 C10.3871932,21 9.19860508,20.7811572 8.1822,20.343465 C7.16579492,19.9057729 6.33840319,19.3039552 5.7,18.5379939 L7.6656,15.5835866 C8.20320269,16.0759903 8.79119681,16.4726429 9.4296,16.7735562 Z M9.4296,16.7735562" fill="#BBBBBB" transform="translate(12.000000, 12.000000) rotate(-270.000000) translate(-12.000000, -12.000000) "></path>
        <path d="M9.4296,40.7735562 C10.0680032,41.0744696 10.689597,41.224924 11.2944,41.224924 C12.0840039,41.224924 12.7265975,41.0881473 13.2222,40.8145897 C13.7178025,40.5410321 13.9656,40.1307018 13.9656,39.5835866 C13.9656,39.2553175 13.9026006,38.9635271 13.7766,38.7082067 C13.6505994,38.4528863 13.4196017,38.2340435 13.0836,38.0516717 C12.7475983,37.8693 12.2940029,37.7325233 11.7228,37.6413374 C11.1515971,37.5501515 10.4208045,37.5045593 9.5304,37.5045593 L9.5304,34.2218845 C10.9752072,34.2218845 11.9915971,34.0440747 12.5796,33.6884498 C13.1676029,33.332825 13.4616,32.8541064 13.4616,32.2522796 C13.4616,31.7234016 13.2852018,31.326749 12.9324,31.06231 C12.5795982,30.797871 12.0840032,30.6656535 11.4456,30.6656535 C10.8575971,30.6656535 10.3200024,30.7841933 9.8328,31.0212766 C9.34559756,31.2583598 8.82480277,31.6139794 8.2704,32.0881459 L6.1032,29.2431611 C6.92640412,28.5319113 7.79579542,27.9802451 8.7114,27.5881459 C9.62700458,27.1960467 10.6055948,27 11.6472,27 C12.5712046,27 13.4111962,27.1094214 14.1672,27.3282675 C14.9232038,27.5471136 15.5699973,27.8617001 16.1076,28.2720365 C16.6452027,28.6823729 17.0609985,29.1930061 17.355,29.8039514 C17.6490015,30.4148967 17.796,31.1124581 17.796,31.8966565 C17.796,32.7355665 17.5482025,33.4650425 17.0526,34.0851064 C16.5569975,34.7051703 15.8304048,35.2249219 14.8728,35.6443769 L14.8728,35.7537994 C15.864005,36.0638313 16.6829968,36.5607869 17.3298,37.2446809 C17.9766032,37.9285748 18.3,38.8176237 18.3,39.9118541 C18.3,40.7325269 18.1194018,41.4574437 17.7582,42.0866261 C17.3969982,42.7158086 16.914003,43.2492379 16.3092,43.6869301 C15.704397,44.1246222 15.0072039,44.4528864 14.2176,44.6717325 C13.4279961,44.8905786 12.6048043,45 11.748,45 C10.3871932,45 9.19860508,44.7811572 8.1822,44.343465 C7.16579492,43.9057729 6.33840319,43.3039552 5.7,42.5379939 L7.6656,39.5835866 C8.20320269,40.0759903 8.79119681,40.4726429 9.4296,40.7735562 Z M9.4296,40.7735562" id="Bottom On" fill="#78B2F2" transform="translate(12.000000, 36.000000) rotate(-270.000000) translate(-12.000000, -36.000000) "></path>
    </g>
</svg>