<?xml version="1.0" encoding="UTF-8" standalone="no"?>
<svg width="24px" height="48px" viewBox="0 0 24 48" version="1.1" xmlns="http://www.w3.org/2000/svg" xmlns:xlink="http://www.w3.org/1999/xlink">
    <title>Bottom</title>
    <description>This is supposed to look like a bottom.</description>
    <g id="Bottom" stroke="none" stroke-width="1" fill="none" fill-rule="evenodd">
        <path d="M9.144,17.3039514 C9.85333688,17.6382995 10.5439966,17.8054711 11.216,17.8054711 C12.0933377,17.8054711 12.8073306,17.653497 13.358,17.3495441 C13.9086694,17.0455912 14.184,16.5896687 14.184,15.9817629 C14.184,15.6170195 14.1140007,15.2928079 13.974,15.0091185 C13.8339993,14.7254292 13.5773352,14.4822705 13.204,14.2796353 C12.8306648,14.077 12.3266698,13.9250258 11.692,13.8237082 C11.0573302,13.7223906 10.2453383,13.6717325 9.256,13.6717325 L9.256,10.0243161 C10.8613414,10.0243161 11.9906634,9.8267497 12.644,9.43161094 C13.2973366,9.03647219 13.624,8.50456261 13.624,7.83586626 C13.624,7.24822401 13.428002,6.80749894 13.036,6.51367781 C12.643998,6.21985669 12.0933369,6.07294833 11.384,6.07294833 C10.7306634,6.07294833 10.133336,6.20465927 9.592,6.46808511 C9.05066396,6.73151094 8.47200308,7.12664377 7.856,7.65349544 L5.448,4.49240122 C6.36267124,3.70212371 7.32866158,3.08916125 8.346,2.65349544 C9.36333842,2.21782964 10.4506609,2 11.608,2 C12.6346718,2 13.5679958,2.12157933 14.408,2.36474164 C15.2480042,2.60790395 15.9666637,2.95744453 16.564,3.41337386 C17.1613363,3.86930319 17.6233317,4.4366734 17.95,5.11550152 C18.2766683,5.79432964 18.44,6.56939787 18.44,7.44072948 C18.44,8.37285167 18.1646694,9.18338055 17.614,9.87234043 C17.0633306,10.5613003 16.2560053,11.1388021 15.192,11.6048632 L15.192,11.7264438 C16.2933388,12.0709237 17.2033297,12.6230965 17.922,13.3829787 C18.6406703,14.1428609 19,15.130693 19,16.3465046 C19,17.2583632 18.7993353,18.0638263 18.398,18.7629179 C17.9966647,19.4620096 17.4600034,20.0547088 16.788,20.5410334 C16.1159966,21.0273581 15.3413377,21.392096 14.464,21.6352584 C13.5866623,21.8784207 12.6720048,22 11.72,22 C10.2079924,22 8.88733898,21.7568413 7.758,21.2705167 C6.62866102,20.7841921 5.70933688,20.1155058 5,19.2644377 L7.184,15.9817629 C7.78133632,16.5288781 8.43466312,16.9696032 9.144,17.3039514 Z M9.144,17.3039514" id="Bottom On" fill="#BBBBBB" transform="translate(12.000000, 12.000000) rotate(-270.000000) translate(-12.000000, -12.000000) "></path>
        <path d="M9.144,41.3039514 C9.85333688,41.6382995 10.5439966,41.8054711 11.216,41.8054711 C12.0933377,41.8054711 12.8073306,41.653497 13.358,41.3495441 C13.9086694,41.0455912 14.184,40.5896687 14.184,39.9817629 C14.184,39.6170195 14.1140007,39.2928079 13.974,39.0091185 C13.8339993,38.7254292 13.5773352,38.4822705 13.204,38.2796353 C12.8306648,38.077 12.3266698,37.9250258 11.692,37.8237082 C11.0573302,37.7223906 10.2453383,37.6717325 9.256,37.6717325 L9.256,34.0243161 C10.8613414,34.0243161 11.9906634,33.8267497 12.644,33.4316109 C13.2973366,33.0364722 13.624,32.5045626 13.624,31.8358663 C13.624,31.248224 13.428002,30.8074989 13.036,30.5136778 C12.643998,30.2198567 12.0933369,30.0729483 11.384,30.0729483 C10.7306634,30.0729483 10.133336,30.2046593 9.592,30.4680851 C9.05066396,30.7315109 8.47200308,31.1266438 7.856,31.6534954 L5.448,28.4924012 C6.36267124,27.7021237 7.32866158,27.0891612 8.346,26.6534954 C9.36333842,26.2178296 10.4506609,26 11.608,26 C12.6346718,26 13.5679958,26.1215793 14.408,26.3647416 C15.2480042,26.607904 15.9666637,26.9574445 16.564,27.4133739 C17.1613363,27.8693032 17.6233317,28.4366734 17.95,29.1155015 C18.2766683,29.7943296 18.44,30.5693979 18.44,31.4407295 C18.44,32.3728517 18.1646694,33.1833805 17.614,33.8723404 C17.0633306,34.5613003 16.2560053,35.1388021 15.192,35.6048632 L15.192,35.7264438 C16.2933388,36.0709237 17.2033297,36.6230965 17.922,37.3829787 C18.6406703,38.1428609 19,39.130693 19,40.3465046 C19,41.2583632 18.7993353,42.0638263 18.398,42.7629179 C17.9966647,43.4620096 17.4600034,44.0547088 16.788,44.5410334 C16.1159966,45.0273581 15.3413377,45.392096 14.464,45.6352584 C13.5866623,45.8784207 12.6720048,46 11.72,46 C10.2079924,46 8.88733898,45.7568413 7.758,45.2705167 C6.62866102,44.7841921 5.70933688,44.1155058 5,43.2644377 L7.184,39.9817629 C7.78133632,40.5288781 8.43466312,40.9696032 9.144,41.3039514 Z M9.144,41.3039514" id="Bottom" fill="#78B2F2" transform="translate(12.000000, 36.000000) rotate(-270.000000) translate(-12.000000, -36.000000) "></path>
    </g>
</svg>